%TF.GenerationSoftware,KiCad,Pcbnew,9.0.2+1*%
%TF.CreationDate,2025-07-02T18:27:54+02:00*%
%TF.ProjectId,xiaoC3_board_adapter,7869616f-4333-45f6-926f-6172645f6164,0*%
%TF.SameCoordinates,PX3ef1480PY3567e00*%
%TF.FileFunction,Copper,L1,Top*%
%TF.FilePolarity,Positive*%
%FSLAX46Y46*%
G04 Gerber Fmt 4.6, Leading zero omitted, Abs format (unit mm)*
G04 Created by KiCad (PCBNEW 9.0.2+1) date 2025-07-02 18:27:54*
%MOMM*%
%LPD*%
G01*
G04 APERTURE LIST*
G04 Aperture macros list*
%AMOutline4P*
0 Free polygon, 4 corners , with rotation*
0 The origin of the aperture is its center*
0 number of corners: always 4*
0 $1 to $8 corner X, Y*
0 $9 Rotation angle, in degrees counterclockwise*
0 create outline with 4 corners*
4,1,4,$1,$2,$3,$4,$5,$6,$7,$8,$1,$2,$9*%
G04 Aperture macros list end*
%ADD10C,0.150000*%
%TA.AperFunction,NonConductor*%
%ADD11C,0.150000*%
%TD*%
%TA.AperFunction,ComponentPad*%
%ADD12R,2.000000X1.850000*%
%TD*%
%TA.AperFunction,ComponentPad*%
%ADD13C,2.001600*%
%TD*%
%TA.AperFunction,ComponentPad*%
%ADD14C,2.006390*%
%TD*%
%TA.AperFunction,ComponentPad*%
%ADD15C,2.014348*%
%TD*%
%TA.AperFunction,ComponentPad*%
%ADD16Outline4P,-1.000000X1.000000X1.000000X1.000000X1.000000X-1.000000X-1.000000X-1.000000X0.000000*%
%TD*%
%TA.AperFunction,ComponentPad*%
%ADD17C,2.000000*%
%TD*%
%TA.AperFunction,ComponentPad*%
%ADD18R,2.000000X2.000000*%
%TD*%
%TA.AperFunction,Conductor*%
%ADD19C,1.000000*%
%TD*%
%TA.AperFunction,Conductor*%
%ADD20C,0.200000*%
%TD*%
G04 APERTURE END LIST*
D10*
D11*
X10738095Y23545181D02*
X11071428Y22545181D01*
X11071428Y22545181D02*
X11404761Y23545181D01*
X12166666Y22592800D02*
X12071428Y22545181D01*
X12071428Y22545181D02*
X11880952Y22545181D01*
X11880952Y22545181D02*
X11785714Y22592800D01*
X11785714Y22592800D02*
X11738095Y22640420D01*
X11738095Y22640420D02*
X11690476Y22735658D01*
X11690476Y22735658D02*
X11690476Y23021372D01*
X11690476Y23021372D02*
X11738095Y23116610D01*
X11738095Y23116610D02*
X11785714Y23164229D01*
X11785714Y23164229D02*
X11880952Y23211848D01*
X11880952Y23211848D02*
X12071428Y23211848D01*
X12071428Y23211848D02*
X12166666Y23164229D01*
X13023809Y22592800D02*
X12928571Y22545181D01*
X12928571Y22545181D02*
X12738095Y22545181D01*
X12738095Y22545181D02*
X12642857Y22592800D01*
X12642857Y22592800D02*
X12595238Y22640420D01*
X12595238Y22640420D02*
X12547619Y22735658D01*
X12547619Y22735658D02*
X12547619Y23021372D01*
X12547619Y23021372D02*
X12595238Y23116610D01*
X12595238Y23116610D02*
X12642857Y23164229D01*
X12642857Y23164229D02*
X12738095Y23211848D01*
X12738095Y23211848D02*
X12928571Y23211848D01*
X12928571Y23211848D02*
X13023809Y23164229D01*
X14500000Y23545181D02*
X14500000Y22830896D01*
X14500000Y22830896D02*
X14452381Y22688039D01*
X14452381Y22688039D02*
X14357143Y22592800D01*
X14357143Y22592800D02*
X14214286Y22545181D01*
X14214286Y22545181D02*
X14119048Y22545181D01*
X15404762Y23211848D02*
X15404762Y22545181D01*
X14976191Y23211848D02*
X14976191Y22688039D01*
X14976191Y22688039D02*
X15023810Y22592800D01*
X15023810Y22592800D02*
X15119048Y22545181D01*
X15119048Y22545181D02*
X15261905Y22545181D01*
X15261905Y22545181D02*
X15357143Y22592800D01*
X15357143Y22592800D02*
X15404762Y22640420D01*
X15880953Y22545181D02*
X15880953Y23211848D01*
X15880953Y23116610D02*
X15928572Y23164229D01*
X15928572Y23164229D02*
X16023810Y23211848D01*
X16023810Y23211848D02*
X16166667Y23211848D01*
X16166667Y23211848D02*
X16261905Y23164229D01*
X16261905Y23164229D02*
X16309524Y23068991D01*
X16309524Y23068991D02*
X16309524Y22545181D01*
X16309524Y23068991D02*
X16357143Y23164229D01*
X16357143Y23164229D02*
X16452381Y23211848D01*
X16452381Y23211848D02*
X16595238Y23211848D01*
X16595238Y23211848D02*
X16690477Y23164229D01*
X16690477Y23164229D02*
X16738096Y23068991D01*
X16738096Y23068991D02*
X16738096Y22545181D01*
X17214286Y23211848D02*
X17214286Y22211848D01*
X17214286Y23164229D02*
X17309524Y23211848D01*
X17309524Y23211848D02*
X17500000Y23211848D01*
X17500000Y23211848D02*
X17595238Y23164229D01*
X17595238Y23164229D02*
X17642857Y23116610D01*
X17642857Y23116610D02*
X17690476Y23021372D01*
X17690476Y23021372D02*
X17690476Y22735658D01*
X17690476Y22735658D02*
X17642857Y22640420D01*
X17642857Y22640420D02*
X17595238Y22592800D01*
X17595238Y22592800D02*
X17500000Y22545181D01*
X17500000Y22545181D02*
X17309524Y22545181D01*
X17309524Y22545181D02*
X17214286Y22592800D01*
X18500000Y22592800D02*
X18404762Y22545181D01*
X18404762Y22545181D02*
X18214286Y22545181D01*
X18214286Y22545181D02*
X18119048Y22592800D01*
X18119048Y22592800D02*
X18071429Y22688039D01*
X18071429Y22688039D02*
X18071429Y23068991D01*
X18071429Y23068991D02*
X18119048Y23164229D01*
X18119048Y23164229D02*
X18214286Y23211848D01*
X18214286Y23211848D02*
X18404762Y23211848D01*
X18404762Y23211848D02*
X18500000Y23164229D01*
X18500000Y23164229D02*
X18547619Y23068991D01*
X18547619Y23068991D02*
X18547619Y22973753D01*
X18547619Y22973753D02*
X18071429Y22878515D01*
X18976191Y22545181D02*
X18976191Y23211848D01*
X18976191Y23021372D02*
X19023810Y23116610D01*
X19023810Y23116610D02*
X19071429Y23164229D01*
X19071429Y23164229D02*
X19166667Y23211848D01*
X19166667Y23211848D02*
X19261905Y23211848D01*
D12*
%TO.P,J2,1,D9*%
%TO.N,Net-(J1-Rx)*%
X24000000Y14195000D03*
D13*
%TO.P,J2,2,D10*%
%TO.N,Net-(J1-Tx)*%
X24000000Y11580000D03*
D14*
%TO.P,J2,3,3v3*%
%TO.N,Net-(J2-3v3)*%
X24000000Y9040000D03*
D15*
%TO.P,J2,4,GND*%
%TO.N,Net-(J1-Gnd)*%
X24000000Y6500000D03*
%TD*%
D16*
%TO.P,J1,1,Vcc*%
%TO.N,Net-(J1-Vcc)*%
X4000000Y14000000D03*
D17*
%TO.P,J1,2,Gnd*%
%TO.N,Net-(J1-Gnd)*%
X4000000Y11460000D03*
%TO.P,J1,3,Tx*%
%TO.N,Net-(J1-Tx)*%
X4000000Y8920000D03*
%TO.P,J1,4,Rx*%
%TO.N,Net-(J1-Rx)*%
X4000000Y6380000D03*
%TD*%
D18*
%TO.P,J3,1,Pin_1*%
%TO.N,Net-(J2-3v3)*%
X15000000Y18500000D03*
D13*
%TO.P,J3,2,Pin_2*%
%TO.N,Net-(J1-Vcc)*%
X12460000Y18500000D03*
%TD*%
D19*
%TO.N,Net-(J1-Tx)*%
X21580000Y11580000D02*
X13000000Y3000000D01*
X1500000Y4500000D02*
X1500000Y7500000D01*
X1500000Y7500000D02*
X2920000Y8920000D01*
X13000000Y3000000D02*
X3000000Y3000000D01*
X3000000Y3000000D02*
X1500000Y4500000D01*
X2920000Y8920000D02*
X4000000Y8920000D01*
X24000000Y11580000D02*
X21580000Y11580000D01*
%TO.N,Net-(J1-Gnd)*%
X2000000Y11500000D02*
X2500000Y11500000D01*
X2500000Y11500000D02*
X2540000Y11460000D01*
X26500000Y6500000D02*
X30000000Y10000000D01*
X1500000Y12000000D02*
X2000000Y11500000D01*
X30000000Y10000000D02*
X30000000Y16500000D01*
X1500000Y16000000D02*
X1500000Y12000000D01*
X25500000Y21000000D02*
X6500000Y21000000D01*
X30000000Y16500000D02*
X25500000Y21000000D01*
X2540000Y11460000D02*
X4000000Y11460000D01*
X6500000Y21000000D02*
X1500000Y16000000D01*
X24000000Y6500000D02*
X26500000Y6500000D01*
%TO.N,Net-(J1-Vcc)*%
X4000000Y14000000D02*
X7960000Y14000000D01*
X7960000Y14000000D02*
X12460000Y18500000D01*
%TO.N,Net-(J1-Rx)*%
X24000000Y14120000D02*
X19620000Y14120000D01*
X19620000Y14120000D02*
X11880000Y6380000D01*
X11880000Y6380000D02*
X4000000Y6380000D01*
%TO.N,Net-(J2-3v3)*%
X27000000Y15500000D02*
X27000000Y10500000D01*
X25500000Y9000000D02*
X24040000Y9000000D01*
D20*
X24040000Y9000000D02*
X24000000Y9040000D01*
D19*
X15000000Y18500000D02*
X24000000Y18500000D01*
X24000000Y18500000D02*
X27000000Y15500000D01*
X27000000Y10500000D02*
X25500000Y9000000D01*
%TD*%
M02*
